<?xml version="1.0" standalone="no"?>
<!DOCTYPE svg PUBLIC "-//W3C//DTD SVG 20010904//EN"
 "http://www.w3.org/TR/2001/REC-SVG-20010904/DTD/svg10.dtd">
<svg version="1.0" xmlns="http://www.w3.org/2000/svg"
 width="16.000000pt" height="16.000000pt" viewBox="0 0 64.000000 64.000000"
 preserveAspectRatio="xMidYMid meet">

<g transform="translate(0.000000,64.000000) scale(0.100000,-0.100000)"
fill="#ffffff" stroke="none">
<path d="M260 485 c-38 -38 -62 -55 -80 -55 -14 0 -36 -7 -48 -16 -20 -13 -22
-24 -22 -94 0 -87 12 -110 57 -110 16 0 46 -19 86 -55 66 -60 107 -72 127 -36
15 29 13 394 -2 409 -26 26 -63 13 -118 -43z"/>
<path d="M474 426 c-4 -9 -1 -36 5 -61 8 -32 8 -57 -1 -95 -12 -54 -4 -76 24
-65 19 7 38 69 38 121 0 66 -50 141 -66 100z"/>
</g>
</svg>
