<?xml version="1.0" standalone="no"?>
<!DOCTYPE svg PUBLIC "-//W3C//DTD SVG 20010904//EN"
 "http://www.w3.org/TR/2001/REC-SVG-20010904/DTD/svg10.dtd">
<svg version="1.0" xmlns="http://www.w3.org/2000/svg"
 width="1.000000pt" height="1.000000pt" viewBox="0 0 64.000000 64.000000"
 preserveAspectRatio="xMidYMid meet">

<g transform="translate(0.000000,64.000000) scale(0.100000,-0.100000)"
fill="#000000" stroke="none">
<path d="M505 559 c-4 -6 8 -40 26 -77 32 -62 34 -72 34 -171 0 -97 -2 -111
-28 -160 -27 -50 -27 -55 -12 -70 15 -15 18 -14 35 7 63 77 84 253 43 364 -35
94 -78 141 -98 107z"/>
<path d="M151 486 c-40 -41 -63 -55 -92 -60 -49 -8 -59 -27 -59 -115 0 -78 10
-95 62 -106 18 -4 58 -28 88 -54 67 -58 82 -64 109 -45 20 15 21 23 21 213 0
140 -3 200 -12 209 -26 26 -63 13 -117 -42z"/>
<path d="M405 500 c-3 -5 7 -33 22 -62 37 -71 39 -172 5 -237 -25 -48 -23 -71
7 -71 13 0 26 15 42 47 19 40 24 64 24 138 0 79 -4 96 -28 143 -26 50 -56 68
-72 42z"/>
<path d="M324 425 c-3 -8 -1 -29 5 -46 14 -42 14 -84 -1 -126 -10 -29 -10 -36
2 -43 24 -15 30 -12 46 25 28 69 8 205 -31 205 -9 0 -18 -7 -21 -15z"/>
</g>
</svg>
